<svg width="900" height="600" viewBox="0 0 900 600" fill="none" xmlns="http://www.w3.org/2000/svg">
  <!-- Background Wave Pattern -->
  <path d="M0 0C0 0 179.492 84.2659 450 84.2659C720.508 84.2659 900 0 900 0V600H0V0Z" fill="url(#paint0_linear)"/>
  
  <!-- Medical Icons Pattern -->
  <g opacity="0.1">
    <!-- DNA Helix Symbol -->
    <path d="M150 100 C200 150, 250 150, 300 100 S350 50, 400 100" stroke="#2B6CB0" stroke-width="8" fill="none"/>
    <path d="M150 130 C200 180, 250 180, 300 130 S350 80, 400 130" stroke="#4299E1" stroke-width="8" fill="none"/>
    
    <!-- Heartbeat Line -->
    <path d="M500 200 L550 200 L570 150 L590 250 L610 200 L660 200" stroke="#2B6CB0" stroke-width="8" fill="none"/>
    
    <!-- Medical Cross -->
    <path d="M700 300h40v-40h40v40h40v40h-40v40h-40v-40h-40z" fill="#4299E1" fill-opacity="0.2"/>
  </g>

  <!-- Gradient Circles -->
  <circle cx="200" cy="400" r="100" fill="url(#paint1_radial)" fill-opacity="0.1"/>
  <circle cx="700" cy="200" r="150" fill="url(#paint2_radial)" fill-opacity="0.1"/>

  <!-- Definitions for gradients -->
  <defs>
    <linearGradient id="paint0_linear" x1="450" y1="0" x2="450" y2="600" gradientUnits="userSpaceOnUse">
      <stop offset="0" stop-color="#2B6CB0" stop-opacity="0.05"/>
      <stop offset="1" stop-color="#4299E1" stop-opacity="0.02"/>
    </linearGradient>
    
    <radialGradient id="paint1_radial" cx="0" cy="0" r="1" gradientUnits="userSpaceOnUse" gradientTransform="translate(200 400) rotate(90) scale(100)">
      <stop stop-color="#2B6CB0"/>
      <stop offset="1" stop-color="#4299E1" stop-opacity="0"/>
    </radialGradient>
    
    <radialGradient id="paint2_radial" cx="0" cy="0" r="1" gradientUnits="userSpaceOnUse" gradientTransform="translate(700 200) rotate(90) scale(150)">
      <stop stop-color="#4299E1"/>
      <stop offset="1" stop-color="#2B6CB0" stop-opacity="0"/>
    </radialGradient>
  </defs>
</svg> 