<svg width="900" height="600" viewBox="0 0 900 600" fill="none" xmlns="http://www.w3.org/2000/svg">
  <path d="M863.766 112.175C841.803 53.6875 781.175 20.3125 720.547 42.275L668.156 59.7188C668.156 59.7188 649.484 8.5625 589.297 29.0625C529.109 49.5625 518.672 105.375 518.672 105.375L466.281 122.819C466.281 122.819 447.609 71.6625 387.422 92.1625C327.234 112.663 316.797 168.475 316.797 168.475L264.406 185.919C264.406 185.919 245.734 134.763 185.547 155.263C125.359 175.763 114.922 231.575 114.922 231.575L62.5312 249.019C1.90625 270.981 -31.4688 331.609 -9.50625 392.238L95.3688 666.613C117.331 727.244 177.959 760.619 238.588 738.656L819.134 112.175H863.766Z" fill="url(#paint0_linear)"/>
  <path d="M863.766 112.175C841.803 53.6875 781.175 20.3125 720.547 42.275L668.156 59.7188C668.156 59.7188 649.484 8.5625 589.297 29.0625C529.109 49.5625 518.672 105.375 518.672 105.375L466.281 122.819C466.281 122.819 447.609 71.6625 387.422 92.1625C327.234 112.663 316.797 168.475 316.797 168.475L264.406 185.919C264.406 185.919 245.734 134.763 185.547 155.263C125.359 175.763 114.922 231.575 114.922 231.575L62.5312 249.019C1.90625 270.981 -31.4688 331.609 -9.50625 392.238L95.3688 666.613C117.331 727.244 177.959 760.619 238.588 738.656L819.134 112.175H863.766Z" fill="url(#paint1_linear)" fill-opacity="0.2"/>
  <defs>
    <linearGradient id="paint0_linear" x1="427.13" y1="0" x2="427.13" y2="751.238" gradientUnits="userSpaceOnUse">
      <stop stop-color="#2B6CB0" stop-opacity="0.05"/>
      <stop offset="1" stop-color="#4299E1" stop-opacity="0.1"/>
    </linearGradient>
    <linearGradient id="paint1_linear" x1="427.13" y1="0" x2="427.13" y2="751.238" gradientUnits="userSpaceOnUse">
      <stop stop-color="#2B6CB0" stop-opacity="0.05"/>
      <stop offset="1" stop-color="#4299E1" stop-opacity="0.1"/>
    </linearGradient>
  </defs>
  
  <!-- Medical Icons Pattern -->
  <g opacity="0.1">
    <!-- Plus Symbol -->
    <path d="M200 100h20v60h60v20h-60v60h-20v-60h-60v-20h60v-60z" fill="#2B6CB0"/>
    <path d="M500 300h20v60h60v20h-60v60h-20v-60h-60v-20h60v-60z" fill="#2B6CB0"/>
    <path d="M700 200h20v60h60v20h-60v60h-20v-60h-60v-20h60v-60z" fill="#2B6CB0"/>
    
    <!-- Heart Symbol -->
    <path d="M150 400 c-20-20-50-20-70 0 s-20 50 0 70 l70 70 l70-70 c20-20 20-50 0-70 s-50-20-70 0" fill="#4299E1"/>
    <path d="M650 100 c-20-20-50-20-70 0 s-20 50 0 70 l70 70 l70-70 c20-20 20-50 0-70 s-50-20-70 0" fill="#4299E1"/>
  </g>
</svg> 